<?xml version="1.0" standalone="no"?>
<!DOCTYPE svg PUBLIC "-//W3C//DTD SVG 20010904//EN"
 "http://www.w3.org/TR/2001/REC-SVG-20010904/DTD/svg10.dtd">
<svg version="1.0" xmlns="http://www.w3.org/2000/svg"
 width="224.000000pt" height="200.000000pt" viewBox="0 0 224.000000 200.000000"
 preserveAspectRatio="xMidYMid meet">
<metadata>
Created by potrace 1.14, written by Peter Selinger 2001-2017
</metadata>
<g transform="translate(0.000000,200.000000) scale(0.100000,-0.100000)"
fill="#000000" stroke="none">
<path d="M755 1681 c-66 -27 -241 -254 -250 -324 -1 -12 -22 -65 -47 -117 -71
-150 -98 -238 -98 -323 0 -83 24 -106 200 -189 80 -38 161 -78 180 -89 19 -10
97 -49 172 -86 75 -37 134 -71 131 -76 -3 -6 -1 -7 5 -3 7 4 29 -2 50 -12 20
-11 66 -34 102 -53 36 -18 67 -35 70 -38 3 -3 14 -8 25 -9 11 -2 33 -11 50
-20 16 -9 35 -17 40 -17 6 -1 9 -6 8 -13 -2 -7 3 -12 11 -12 9 0 15 20 20 65
4 36 11 77 17 91 6 19 6 31 -2 40 -17 21 -31 17 -19 -5 7 -13 7 -28 0 -46 -5
-14 -9 -29 -9 -33 4 -24 -2 -84 -8 -79 -3 4 -6 24 -6 44 l1 38 -13 -30 c-8
-16 -14 -24 -15 -17 0 6 -7 12 -16 12 -9 0 -38 13 -64 29 -27 16 -66 35 -89
42 -23 7 -41 16 -41 20 0 4 -20 15 -45 25 -25 9 -45 21 -45 25 0 5 -20 14 -45
20 -25 6 -45 14 -45 18 0 7 -49 29 -157 72 -16 6 -49 21 -76 35 -26 13 -54 24
-62 24 -8 0 -15 4 -15 9 0 5 -16 15 -35 21 -19 6 -35 18 -35 25 0 9 -6 12 -15
9 -8 -4 -15 -1 -15 5 0 9 -80 57 -88 52 -6 -4 -67 56 -70 69 -2 7 2 55 9 107
10 80 14 93 28 87 9 -3 27 -9 41 -12 14 -2 30 -9 37 -14 7 -5 17 -7 23 -3 5 3
10 1 10 -6 0 -7 3 -10 6 -6 3 3 25 -13 48 -36 48 -49 96 -80 186 -123 135 -65
168 -77 196 -71 26 5 102 -17 114 -33 3 -4 25 -14 49 -24 24 -9 50 -23 58 -31
8 -8 21 -15 29 -15 8 0 14 -5 14 -11 0 -6 9 -9 20 -6 11 3 18 2 15 -3 -5 -8
24 -25 38 -22 4 1 7 -2 7 -7 0 -5 9 -11 20 -14 11 -3 20 -1 20 4 0 6 10 1 21
-10 16 -15 26 -18 40 -11 26 14 29 13 29 -15 0 -36 17 -31 24 8 7 36 99 222
123 250 9 9 11 17 6 17 -15 0 -31 -22 -74 -103 -21 -39 -39 -66 -39 -58 0 27
143 276 183 318 23 24 38 46 34 50 -4 4 -21 -9 -37 -28 -28 -32 -29 -32 -18
-6 17 41 -1 69 -69 103 -32 16 -60 29 -63 29 -3 0 -44 20 -92 43 -47 24 -96
45 -108 47 -13 2 -30 10 -39 18 -37 31 -154 78 -189 75 -24 -2 -37 2 -40 12
-5 13 -3 13 12 1 9 -8 20 -11 23 -7 11 10 -19 27 -39 22 -10 -2 -18 -1 -18 3
0 10 -60 44 -60 34 0 -4 -5 0 -11 10 -5 9 -15 17 -21 17 -6 0 -17 -8 -25 -17
-13 -17 -14 -17 -9 2 4 14 -1 25 -15 33 -28 18 -35 9 -15 -20 18 -26 20 -38 6
-38 -5 0 -10 6 -10 14 0 8 -7 21 -15 30 -9 8 -14 19 -13 23 5 11 -95 60 -111
55 -8 -3 -12 -1 -8 5 11 18 -16 33 -34 20 -23 -17 -35 -59 -15 -51 9 3 16 1
16 -5 0 -6 12 -11 26 -11 14 0 23 4 19 9 -3 5 0 13 6 17 12 7 11 -4 -6 -51 -5
-16 -5 -17 4 -5 6 8 11 10 11 5 0 -6 8 -11 18 -12 40 -3 57 -11 54 -26 -1 -8
2 -18 8 -22 5 -3 10 -1 10 4 0 6 5 11 11 11 5 0 8 -3 6 -7 -3 -5 1 -14 9 -20
7 -7 15 -9 18 -4 9 14 55 0 59 -18 4 -13 6 -12 12 6 4 14 12 20 22 16 8 -3 11
-9 6 -12 -4 -3 -15 -15 -23 -25 -14 -18 -14 -19 7 -5 20 12 24 11 37 -6 7 -10
12 -25 9 -31 -2 -7 0 -15 6 -19 6 -3 9 0 5 8 -3 8 3 20 12 28 16 12 17 12 12
-2 -3 -9 -2 -22 3 -30 7 -11 9 -9 9 8 0 12 5 25 10 28 6 3 10 1 10 -5 0 -6 5
-8 10 -5 6 3 10 1 10 -4 0 -6 7 -11 16 -11 14 0 14 -2 -1 -16 -9 -9 -13 -19
-9 -23 4 -3 9 0 11 7 6 17 23 15 23 -3 0 -9 9 -15 24 -15 13 0 27 -6 29 -12 3
-8 6 -6 6 5 1 9 6 17 12 17 7 0 9 -11 5 -31 -5 -27 -4 -28 9 -15 8 8 13 21 10
29 -4 8 0 14 10 14 17 0 21 -22 5 -32 -19 -12 -10 -25 18 -25 15 0 22 4 16 8
-7 4 -8 15 -3 27 7 19 8 19 8 1 1 -16 4 -17 13 -8 20 20 32 13 13 -8 -18 -19
-17 -20 3 -20 11 0 23 6 25 13 4 9 6 9 6 -1 1 -7 -6 -15 -14 -18 -8 -4 -12
-10 -9 -15 3 -5 10 -7 15 -4 5 4 9 0 9 -7 0 -9 3 -9 10 2 9 13 10 13 11 0 0
-12 2 -11 7 2 5 11 12 14 21 9 10 -6 5 -12 -17 -22 -17 -7 -28 -17 -26 -21 3
-4 13 -4 23 1 37 20 82 -8 50 -31 -10 -7 -9 -8 6 -3 23 8 24 8 48 6 10 0 15
-5 12 -11 -3 -5 2 -10 12 -10 11 0 24 -5 31 -12 13 -13 65 -21 57 -8 -3 5 -1
11 4 14 18 11 22 -34 7 -66 -9 -17 -16 -40 -16 -50 0 -11 -4 -17 -9 -14 -5 4
-7 -2 -5 -11 3 -10 -16 -61 -41 -113 -68 -139 -82 -159 -105 -153 -11 3 -18 9
-15 13 3 5 -3 11 -12 14 -10 3 -26 21 -37 38 -17 30 -19 31 -27 13 -4 -11 -8
-14 -8 -7 -1 6 -8 12 -17 12 -8 0 -12 5 -9 10 6 9 -10 14 -42 13 -6 0 -9 6 -6
15 5 11 3 13 -6 7 -8 -4 -17 -2 -22 6 -7 11 -11 11 -17 2 -6 -10 -12 -8 -23 5
-10 12 -27 18 -46 16 -26 -1 -30 1 -26 17 3 10 1 19 -3 20 -27 2 -48 9 -53 16
-12 18 -98 72 -149 94 -35 15 -48 25 -40 31 9 5 5 8 -10 8 -13 0 -38 6 -55 14
-92 39 -170 66 -192 66 -14 0 -25 5 -25 10 0 6 -8 10 -18 10 -10 0 -24 6 -31
13 -10 10 -14 8 -22 -6 -6 -9 -15 -15 -20 -11 -7 4 -7 10 0 18 14 16 -3 40
-23 33 -9 -4 -16 -14 -16 -22 0 -9 -4 -13 -10 -10 -5 3 -10 -1 -10 -9 0 -9 -4
-16 -9 -16 -5 0 -7 -9 -4 -20 3 -12 0 -20 -7 -20 -9 0 -10 11 -5 37 7 38 35
89 35 64 0 -26 13 -1 17 31 5 46 49 130 104 200 27 33 49 57 49 52 0 -4 7 1
15 12 14 19 21 74 9 74 -4 0 -13 -8 -20 -17 -7 -10 -14 -15 -14 -11 0 5 18 27
40 49 23 24 38 34 34 23 -6 -17 -4 -16 9 2 11 14 26 20 46 19 17 -1 31 1 31 5
0 8 119 -15 128 -25 4 -4 -7 -4 -23 0 -25 5 -27 4 -12 -5 9 -6 27 -13 38 -15
11 -2 64 -25 117 -51 232 -112 322 -154 332 -154 5 0 10 -5 10 -11 0 -6 9 -8
21 -4 15 5 19 4 15 -4 -4 -6 0 -11 8 -11 9 0 33 -9 53 -20 25 -13 39 -16 44
-9 5 8 8 8 13 0 4 -6 5 -11 1 -11 -3 0 -1 -9 5 -20 6 -11 15 -18 20 -15 5 3
26 -1 46 -10 20 -8 45 -15 55 -15 11 0 19 -5 19 -11 0 -8 5 -7 15 1 13 11 20
9 40 -10 13 -12 28 -19 34 -15 6 3 11 3 11 -2 0 -16 44 -28 68 -18 31 14 28
22 -10 27 -41 6 -61 11 -68 18 -6 6 -258 130 -265 130 -2 0 -73 33 -157 74
-530 255 -539 259 -593 237z m5 -36 c0 -3 -2 -5 -5 -5 -3 0 -5 2 -5 5 0 3 2 5
5 5 3 0 5 -2 5 -5z m-30 -90 c0 -3 -2 -5 -5 -5 -3 0 -5 2 -5 5 0 3 2 5 5 5 3
0 5 -2 5 -5z m360 -10 c0 -3 -2 -5 -5 -5 -3 0 -5 2 -5 5 0 3 2 5 5 5 3 0 5 -2
5 -5z m-373 -12 c-4 -3 -10 -3 -14 0 -3 4 0 7 7 7 7 0 10 -3 7 -7z m350 0 c-4
-3 -10 -3 -14 0 -3 4 0 7 7 7 7 0 10 -3 7 -7z m-459 -43 c-12 -16 -23 -30 -25
-30 -2 0 4 14 14 30 9 17 21 30 25 30 5 0 -1 -13 -14 -30z m132 25 c0 -3 -2
-5 -5 -5 -3 0 -5 2 -5 5 0 3 2 5 5 5 3 0 5 -2 5 -5z m60 -10 c0 -3 -2 -5 -5
-5 -3 0 -5 2 -5 5 0 3 2 5 5 5 3 0 5 -2 5 -5z m20 -25 c0 -5 -2 -10 -4 -10 -3
0 -8 5 -11 10 -3 6 -1 10 4 10 6 0 11 -4 11 -10z m-250 -45 c0 -3 -2 -5 -5 -5
-3 0 -5 2 -5 5 0 3 2 5 5 5 3 0 5 -2 5 -5z m457 -52 c-4 -3 -7 0 -7 7 0 7 3
10 7 7 3 -4 3 -10 0 -14z m20 -25 c-3 -8 -6 -5 -6 6 -1 11 2 17 5 13 3 -3 4
-12 1 -19z m130 -15 c-4 -3 -10 -3 -14 0 -3 4 0 7 7 7 7 0 10 -3 7 -7z m353 2
c0 -3 -2 -5 -5 -5 -3 0 -5 2 -5 5 0 3 2 5 5 5 3 0 5 -2 5 -5z m-323 -32 c-4
-3 -7 0 -7 7 0 7 3 10 7 7 3 -4 3 -10 0 -14z m-17 -13 c0 -5 -4 -10 -10 -10
-5 0 -10 5 -10 10 0 6 5 10 10 10 6 0 10 -4 10 -10z m57 -7 c-4 -3 -10 -3 -14
0 -3 4 0 7 7 7 7 0 10 -3 7 -7z m33 2 c0 -3 -2 -5 -5 -5 -3 0 -5 2 -5 5 0 3 2
5 5 5 3 0 5 -2 5 -5z m327 -2 c-4 -3 -10 -3 -14 0 -3 4 0 7 7 7 7 0 10 -3 7
-7z m83 -28 c0 -3 -2 -5 -5 -5 -3 0 -5 2 -5 5 0 3 2 5 5 5 3 0 5 -2 5 -5z
m-230 -70 c0 -3 -2 -5 -5 -5 -3 0 -5 2 -5 5 0 3 2 5 5 5 3 0 5 -2 5 -5z m70
-38 c0 -1 -14 -3 -31 -4 -26 -2 -29 0 -19 12 9 11 17 12 31 4 10 -5 19 -11 19
-12z m30 8 c0 -3 -2 -5 -5 -5 -3 0 -5 2 -5 5 0 3 2 5 5 5 3 0 5 -2 5 -5z
m-1000 -20 c0 -3 -2 -5 -5 -5 -3 0 -5 2 -5 5 0 3 2 5 5 5 3 0 5 -2 5 -5z m-50
-20 c0 -3 -2 -5 -5 -5 -3 0 -5 2 -5 5 0 3 2 5 5 5 3 0 5 -2 5 -5z m1085 -16
c-4 -5 -12 -9 -18 -8 -9 0 -8 2 1 6 6 2 9 10 6 15 -4 7 -2 8 5 4 6 -4 9 -12 6
-17z m-1038 4 c-4 -3 -10 -3 -14 0 -3 4 0 7 7 7 7 0 10 -3 7 -7z m1103 -3 c0
-5 -5 -10 -11 -10 -5 0 -7 5 -4 10 3 6 8 10 11 10 2 0 4 -4 4 -10z m-945 -40
c-3 -5 -10 -10 -16 -10 -5 0 -9 5 -9 10 0 6 7 10 16 10 8 0 12 -4 9 -10z m129
-64 c120 -57 166 -98 166 -149 0 -27 -13 -36 -25 -17 -3 5 -12 7 -20 4 -15 -6
-201 82 -244 115 -20 16 -22 21 -11 41 8 14 8 20 1 16 -15 -10 -14 17 1 32 16
16 4 19 132 -42z m-224 39 c0 -3 -2 -5 -5 -5 -3 0 -5 2 -5 5 0 3 2 5 5 5 3 0
5 -2 5 -5z m70 -70 c0 -3 -2 -5 -5 -5 -3 0 -5 2 -5 5 0 3 2 5 5 5 3 0 5 -2 5
-5z m430 -100 c0 -3 -2 -5 -5 -5 -3 0 -5 2 -5 5 0 3 2 5 5 5 3 0 5 -2 5 -5z
m110 -80 c0 -3 -2 -5 -5 -5 -3 0 -5 2 -5 5 0 3 2 5 5 5 3 0 5 -2 5 -5z m77
-42 c-4 -3 -10 -3 -14 0 -3 4 0 7 7 7 7 0 10 -3 7 -7z m70 -30 c-4 -3 -10 -3
-14 0 -3 4 0 7 7 7 7 0 10 -3 7 -7z m133 -28 c0 -3 -2 -5 -5 -5 -3 0 -5 2 -5
5 0 3 2 5 5 5 3 0 5 -2 5 -5z m-10 -20 c0 -3 -2 -5 -5 -5 -3 0 -5 2 -5 5 0 3
2 5 5 5 3 0 5 -2 5 -5z M155 1468 l-14 -33 157 -77 c167 -83 172 -85 172 -65
0 8 -67 47 -150 87 -82 41 -150 78 -150 83 0 13 36 -1 182 -74 111 -56 137
-65 142 -53 8 21 8 21 -6 21 -7 0 -79 33 -161 72 -81 39 -150 71 -153 71 -3 0
-11 -15 -19 -32z M806 1441 c-4 -6 -2 -11 3 -11 6 0 11 -8 12 -17 0 -10 3 -13
5 -6 8 18 -11 49 -20 34z M660 1420 c0 -7 3 -10 7 -7 3 4 3 10 0 14 -4 3 -7 0
-7 -7z M770 1410 c0 -5 5 -10 10 -10 6 0 10 5 10 10 0 6 -4 10 -10 10 -5 0
-10 -4 -10 -10z M750 1395 c0 -3 2 -5 5 -5 3 0 5 2 5 5 0 3 -2 5 -5 5 -3 0 -5
-2 -5 -5z M850 1395 c0 -3 2 -5 5 -5 3 0 5 2 5 5 0 3 -2 5 -5 5 -3 0 -5 -2 -5
-5z M930 1385 c0 -3 2 -5 5 -5 3 0 5 2 5 5 0 3 -2 5 -5 5 -3 0 -5 -2 -5 -5z
M860 1365 c0 -3 2 -5 5 -5 3 0 5 2 5 5 0 3 -2 5 -5 5 -3 0 -5 -2 -5 -5z M1000
1355 c0 -3 2 -5 5 -5 3 0 5 2 5 5 0 3 -2 5 -5 5 -3 0 -5 -2 -5 -5z M790 1330
c0 -7 3 -10 7 -7 3 4 3 10 0 14 -4 3 -7 0 -7 -7z M890 1330 c0 -7 3 -10 7 -7
3 4 3 10 0 14 -4 3 -7 0 -7 -7z M1010 1330 c0 -7 3 -10 7 -7 3 4 3 10 0 14 -4
3 -7 0 -7 -7z M980 1325 c0 -3 2 -5 5 -5 3 0 5 2 5 5 0 3 -2 5 -5 5 -3 0 -5
-2 -5 -5z M1095 1310 c-3 -5 -1 -10 4 -10 6 0 11 5 11 10 0 6 -2 10 -4 10 -3
0 -8 -4 -11 -10z M1000 1300 c0 -7 3 -10 7 -7 3 4 3 10 0 14 -4 3 -7 0 -7 -7z
M960 1295 c0 -3 2 -5 5 -5 3 0 5 2 5 5 0 3 -2 5 -5 5 -3 0 -5 -2 -5 -5z M1020
1295 c0 -3 2 -5 5 -5 3 0 5 2 5 5 0 3 -2 5 -5 5 -3 0 -5 -2 -5 -5z M980 1285
c0 -3 2 -5 5 -5 3 0 5 2 5 5 0 3 -2 5 -5 5 -3 0 -5 -2 -5 -5z M920 1245 c0 -3
2 -5 5 -5 3 0 5 2 5 5 0 3 -2 5 -5 5 -3 0 -5 -2 -5 -5z M960 1240 c0 -7 3 -10
7 -7 3 4 3 10 0 14 -4 3 -7 0 -7 -7z M985 1240 c3 -5 8 -10 11 -10 2 0 4 5 4
10 0 6 -5 10 -11 10 -5 0 -7 -4 -4 -10z M1688 1215 c-21 -28 -23 -41 -5 -48 6
-3 -1 -6 -16 -6 -16 -1 -26 -5 -22 -10 7 -12 65 -11 65 1 0 4 5 8 10 8 6 0 10
-9 10 -19 0 -11 5 -23 10 -26 12 -8 13 0 0 39 -5 17 -12 43 -15 59 -7 33 -15
34 -37 2z M1020 1220 c0 -7 3 -10 7 -7 3 4 3 10 0 14 -4 3 -7 0 -7 -7z M990
1215 c0 -3 2 -5 5 -5 3 0 5 2 5 5 0 3 -2 5 -5 5 -3 0 -5 -2 -5 -5z M1060 1210
c0 -7 3 -10 7 -7 3 4 3 10 0 14 -4 3 -7 0 -7 -7z M1133 1213 c4 -3 10 -3 14 0
3 4 0 7 -7 7 -7 0 -10 -3 -7 -7z M1240 1205 c0 -3 2 -5 5 -5 3 0 5 2 5 5 0 3
-2 5 -5 5 -3 0 -5 -2 -5 -5z M1310 1190 c0 -6 7 -10 15 -10 8 0 15 2 15 4 0 2
-7 6 -15 10 -8 3 -15 1 -15 -4z M1760 1194 c0 -2 9 -8 20 -14 11 -6 20 -7 20
-2 0 6 -9 12 -20 15 -11 3 -20 3 -20 1z M1880 1175 c0 -8 5 -15 10 -15 6 0 10
7 10 15 0 8 -4 15 -10 15 -5 0 -10 -7 -10 -15z M1280 1155 c0 -3 2 -5 5 -5 3
0 5 2 5 5 0 3 -2 5 -5 5 -3 0 -5 -2 -5 -5z M1350 1155 c0 -3 2 -5 5 -5 3 0 5
2 5 5 0 3 -2 5 -5 5 -3 0 -5 -2 -5 -5z M1410 1140 c0 -5 5 -10 11 -10 5 0 7 5
4 10 -3 6 -8 10 -11 10 -2 0 -4 -4 -4 -10z M1760 1125 c0 -3 2 -5 5 -5 3 0 5
2 5 5 0 3 -2 5 -5 5 -3 0 -5 -2 -5 -5z M1870 1100 c0 -11 -7 -20 -15 -20 -17
0 -18 -2 -9 -24 8 -20 24 -21 24 -1 0 8 4 15 10 15 5 0 6 -8 3 -17 -6 -15 -4
-16 9 -5 13 10 17 10 22 -3 3 -9 -3 -20 -14 -27 -11 -7 -20 -22 -19 -33 0 -20
0 -20 9 0 5 12 9 14 9 6 1 -17 41 26 41 43 -1 16 -26 46 -39 46 -6 0 -11 9
-11 20 0 11 -4 20 -10 20 -5 0 -10 -9 -10 -20z M1911 1104 c0 -11 3 -14 6 -6
3 7 2 16 -1 19 -3 4 -6 -2 -5 -13z M1480 1105 c0 -3 2 -5 5 -5 3 0 5 2 5 5 0
3 -2 5 -5 5 -3 0 -5 -2 -5 -5z M1510 1095 c0 -3 2 -5 5 -5 3 0 5 2 5 5 0 3 -2
5 -5 5 -3 0 -5 -2 -5 -5z M1540 1080 c0 -5 5 -10 11 -10 5 0 7 5 4 10 -3 6 -8
10 -11 10 -2 0 -4 -4 -4 -10z M1580 1060 c0 -7 3 -10 7 -7 3 4 3 10 0 14 -4 3
-7 0 -7 -7z M1804 968 c-14 -49 -6 -96 16 -103 10 -3 21 -14 25 -23 7 -22 98
-72 130 -72 17 0 29 8 37 25 16 35 -6 63 -86 105 -55 29 -65 38 -59 55 5 19 4
19 -13 4 -27 -23 -45 -14 -34 17 5 13 6 24 1 24 -4 0 -12 -15 -17 -32z m168
-125 c36 -33 18 -59 -30 -42 -28 9 -47 40 -34 53 11 12 46 6 64 -11z M1740
965 c0 -3 2 -5 5 -5 3 0 5 2 5 5 0 3 -2 5 -5 5 -3 0 -5 -2 -5 -5z M1660 955
c0 -3 2 -5 5 -5 3 0 5 2 5 5 0 3 -2 5 -5 5 -3 0 -5 -2 -5 -5z M1635 909 c-4
-6 -5 -12 -2 -15 2 -3 7 2 10 11 7 17 1 20 -8 4z M1720 915 c0 -3 2 -5 5 -5 3
0 5 2 5 5 0 3 -2 5 -5 5 -3 0 -5 -2 -5 -5z M1723 851 c1 -16 5 -27 9 -25 10 6
6 54 -4 54 -4 0 -6 -13 -5 -29z M1750 875 c0 -3 2 -5 5 -5 3 0 5 2 5 5 0 3 -2
5 -5 5 -3 0 -5 -2 -5 -5z M1160 865 c0 -3 2 -5 5 -5 3 0 5 2 5 5 0 3 -2 5 -5
5 -3 0 -5 -2 -5 -5z M1700 850 c0 -7 3 -10 7 -7 3 4 3 10 0 14 -4 3 -7 0 -7
-7z M631 808 c0 -19 20 -33 117 -80 105 -50 121 -55 157 -49 39 8 39 8 14 18
-14 6 -83 38 -154 72 -70 34 -130 61 -132 61 -1 0 -3 -10 -2 -22z M1850 805
c0 -3 2 -5 5 -5 3 0 5 2 5 5 0 3 -2 5 -5 5 -3 0 -5 -2 -5 -5z M1670 764 c0 -8
5 -12 10 -9 6 3 10 10 10 16 0 5 -4 9 -10 9 -5 0 -10 -7 -10 -16z M1830 770
c0 -5 5 -10 10 -10 6 0 10 5 10 10 0 6 -4 10 -10 10 -5 0 -10 -4 -10 -10z
M1842 752 c-18 -3 -22 -8 -16 -25 6 -21 6 -21 -13 -4 -11 9 -23 14 -26 10 -12
-11 -8 -23 8 -23 8 0 15 -7 15 -15 0 -17 -16 -20 -25 -5 -11 18 -25 10 -25
-15 0 -18 5 -25 18 -25 23 0 55 33 45 45 -5 4 -3 5 4 1 7 -4 18 6 27 26 18 36
19 35 -12 30z M1110 740 c0 -7 3 -10 7 -7 3 4 3 10 0 14 -4 3 -7 0 -7 -7z
M1626 729 c-8 -12 -13 -26 -10 -31 9 -14 34 -9 34 8 0 9 -5 12 -12 8 -9 -5 -8
-2 1 9 8 10 11 20 8 23 -3 3 -12 -5 -21 -17z M623 733 c4 -3 10 -3 14 0 3 4 0
7 -7 7 -7 0 -10 -3 -7 -7z M1120 710 c0 -7 3 -10 7 -7 3 4 3 10 0 14 -4 3 -7
0 -7 -7z M1610 669 c0 -22 -45 -69 -66 -69 -22 0 -28 -11 -43 -82 -7 -29 -5
-38 5 -38 8 0 17 0 22 0 4 0 8 20 8 44 2 52 9 66 34 66 23 0 92 -30 102 -45 4
-5 8 -6 8 -1 0 5 7 3 15 -4 8 -7 13 -16 10 -20 -3 -5 4 -12 15 -15 17 -5 19
-10 9 -21 -26 -31 -94 1 -84 39 5 20 4 20 -7 -2 -10 -20 -9 -25 7 -37 11 -7
25 -18 31 -23 7 -5 29 -12 50 -15 22 -3 33 -3 26 0 -6 3 -9 11 -5 17 3 6 7 23
8 37 1 22 -2 26 -17 22 -12 -3 -18 1 -18 13 0 11 5 15 16 11 10 -4 13 -2 8 6
-5 8 -2 9 10 5 11 -4 19 -1 22 11 3 9 10 25 15 35 6 11 8 22 5 25 -8 7 -46
-33 -46 -48 0 -6 -11 -15 -25 -22 -29 -13 -74 11 -76 40 -1 9 -2 22 -4 27 -1
6 -3 17 -3 26 -2 18 -32 35 -32 18z m22 -55 c-5 -27 -27 -32 -36 -9 -3 8 -1
15 4 15 5 0 12 10 15 21 9 29 24 6 17 -27z M1651 664 c0 -11 3 -14 6 -6 3 7 2
16 -1 19 -3 4 -6 -2 -5 -13z M670 655 c0 -3 2 -5 5 -5 3 0 5 2 5 5 0 3 -2 5
-5 5 -3 0 -5 -2 -5 -5z M1830 635 c0 -3 2 -5 5 -5 3 0 5 2 5 5 0 3 -2 5 -5 5
-3 0 -5 -2 -5 -5z M1331 580 l-19 -40 22 0 c12 0 31 -7 43 -15 14 -10 24 -12
28 -5 8 13 -4 32 -16 24 -5 -3 -9 -2 -8 3 3 20 -2 27 -11 13 -9 -13 -10 -13
-10 0 0 8 5 22 10 30 7 11 10 11 10 2 0 -7 5 -10 12 -6 7 5 5 11 -7 21 -28 19
-33 17 -54 -27z M1810 599 c-6 -11 -10 -25 -8 -30 2 -5 8 4 15 21 13 34 9 40
-7 9z M1410 585 c0 -3 2 -5 5 -5 3 0 5 2 5 5 0 3 -2 5 -5 5 -3 0 -5 -2 -5 -5z
M1550 565 c0 -3 2 -5 5 -5 3 0 5 2 5 5 0 3 -2 5 -5 5 -3 0 -5 -2 -5 -5z M1410
555 c0 -3 2 -5 5 -5 3 0 5 2 5 5 0 3 -2 5 -5 5 -3 0 -5 -2 -5 -5z M1330 526
c0 -7 72 -47 77 -42 3 2 -13 14 -36 26 -23 11 -41 19 -41 16z M1420 525 c0 -3
2 -5 5 -5 3 0 5 2 5 5 0 3 -2 5 -5 5 -3 0 -5 -2 -5 -5z M960 505 c0 -3 2 -5 5
-5 3 0 5 2 5 5 0 3 -2 5 -5 5 -3 0 -5 -2 -5 -5z M1674 499 c-3 -5 -2 -9 3 -10
4 0 16 -2 26 -4 9 -2 17 0 17 5 0 12 -39 20 -46 9z M990 495 c0 -3 2 -5 5 -5
3 0 5 2 5 5 0 3 -2 5 -5 5 -3 0 -5 -2 -5 -5z M1560 469 c0 -11 5 -17 10 -14 6
3 10 13 10 21 0 8 -4 14 -10 14 -5 0 -10 -9 -10 -21z M1586 425 c-9 -13 -16
-30 -16 -38 0 -8 -18 -33 -39 -56 -33 -36 -45 -42 -72 -39 -18 1 -34 -2 -36
-7 -2 -6 7 -11 19 -12 13 -1 24 -7 26 -13 3 -8 8 -7 18 1 7 6 20 9 29 6 8 -4
17 -2 20 3 4 6 15 10 25 10 20 0 35 43 32 91 -2 21 4 28 30 35 l32 9 -26 17
c-25 17 -27 17 -42 -7z m34 -5 c0 -5 -4 -10 -10 -10 -5 0 -10 5 -10 10 0 6 5
10 10 10 6 0 10 -4 10 -10z M1660 440 c8 -5 22 -10 30 -10 13 0 13 1 0 10 -8
5 -22 10 -30 10 -13 0 -13 -1 0 -10z M1110 425 c0 -3 2 -5 5 -5 3 0 5 2 5 5 0
3 -2 5 -5 5 -3 0 -5 -2 -5 -5z M1663 403 c4 -3 10 -3 14 0 3 4 0 7 -7 7 -7 0
-10 -3 -7 -7z M1615 370 c-3 -5 1 -10 9 -10 9 0 16 5 16 10 0 6 -4 10 -9 10
-6 0 -13 -4 -16 -10z M1343 323 c4 -3 10 -3 14 0 3 4 0 7 -7 7 -7 0 -10 -3 -7
-7z M1494 252 c2 -4 19 -8 38 -9 30 -1 31 -1 8 7 -33 11 -52 12 -46 2z"/>
</g>
</svg>
